<?xml version="1.0" standalone="no"?><svg xmlns="http://www.w3.org/2000/svg" viewBox="0 0 1440 320"><path fill="#f0cbb0" fill-opacity="1" d="M0,96L11.4,85.3C22.9,75,46,53,69,53.3C91.4,53,114,75,137,85.3C160,96,183,96,206,133.3C228.6,171,251,245,274,250.7C297.1,256,320,192,343,186.7C365.7,181,389,235,411,261.3C434.3,288,457,288,480,256C502.9,224,526,160,549,160C571.4,160,594,224,617,250.7C640,277,663,267,686,234.7C708.6,203,731,149,754,160C777.1,171,800,245,823,256C845.7,267,869,213,891,213.3C914.3,213,937,267,960,282.7C982.9,299,1006,277,1029,261.3C1051.4,245,1074,235,1097,213.3C1120,192,1143,160,1166,133.3C1188.6,107,1211,85,1234,112C1257.1,139,1280,213,1303,218.7C1325.7,224,1349,160,1371,160C1394.3,160,1417,224,1429,256L1440,288L1440,0L1428.6,0C1417.1,0,1394,0,1371,0C1348.6,0,1326,0,1303,0C1280,0,1257,0,1234,0C1211.4,0,1189,0,1166,0C1142.9,0,1120,0,1097,0C1074.3,0,1051,0,1029,0C1005.7,0,983,0,960,0C937.1,0,914,0,891,0C868.6,0,846,0,823,0C800,0,777,0,754,0C731.4,0,709,0,686,0C662.9,0,640,0,617,0C594.3,0,571,0,549,0C525.7,0,503,0,480,0C457.1,0,434,0,411,0C388.6,0,366,0,343,0C320,0,297,0,274,0C251.4,0,229,0,206,0C182.9,0,160,0,137,0C114.3,0,91,0,69,0C45.7,0,23,0,11,0L0,0Z"></path></svg>