<?xml version="1.0" standalone="no"?><svg xmlns="http://www.w3.org/2000/svg" viewBox="0 0 1440 320"><path fill="#a5d5e7 " fill-opacity="1" d="M0,128L11.4,128C22.9,128,46,128,69,144C91.4,160,114,192,137,208C160,224,183,224,206,197.3C228.6,171,251,117,274,128C297.1,139,320,213,343,240C365.7,267,389,245,411,218.7C434.3,192,457,160,480,149.3C502.9,139,526,149,549,128C571.4,107,594,53,617,48C640,43,663,85,686,138.7C708.6,192,731,256,754,245.3C777.1,235,800,149,823,138.7C845.7,128,869,192,891,229.3C914.3,267,937,277,960,240C982.9,203,1006,117,1029,106.7C1051.4,96,1074,160,1097,186.7C1120,213,1143,203,1166,208C1188.6,213,1211,235,1234,213.3C1257.1,192,1280,128,1303,138.7C1325.7,149,1349,235,1371,224C1394.3,213,1417,107,1429,53.3L1440,0L1440,0L1428.6,0C1417.1,0,1394,0,1371,0C1348.6,0,1326,0,1303,0C1280,0,1257,0,1234,0C1211.4,0,1189,0,1166,0C1142.9,0,1120,0,1097,0C1074.3,0,1051,0,1029,0C1005.7,0,983,0,960,0C937.1,0,914,0,891,0C868.6,0,846,0,823,0C800,0,777,0,754,0C731.4,0,709,0,686,0C662.9,0,640,0,617,0C594.3,0,571,0,549,0C525.7,0,503,0,480,0C457.1,0,434,0,411,0C388.6,0,366,0,343,0C320,0,297,0,274,0C251.4,0,229,0,206,0C182.9,0,160,0,137,0C114.3,0,91,0,69,0C45.7,0,23,0,11,0L0,0Z"></path></svg>